# xmcd
#
# Track frame offsets:
#	150
#	37506
#	65987
#	107613
#
# Disc length: 1913 seconds
#
# Revision: 0
# Processed by: cddbd v1.5.2PL0 Copyright (c) Steve Scherf et al.
# Submitted via: EasyCDDAExtractor 2010.6.0.0
#
DISCID=2b077704
DTITLE=JSTO feat. Aison Jiear - I Just Wanna Dance
DYEAR=2004
DGENRE=Dance
TTITLE0=I Just Wanna Dance (Sharp Boys Act I Vocal Remix)
TTITLE1=I Just Wanna Dance (Sharp Boys Act II Full Dub Remix)
TTITLE2=I Just Wanna Dance (Wayne G Lady Botox Anthem)
TTITLE3=I Just Wanna Dance (Wayne G Circuit Anthem)
EXTD=
EXTT0=
EXTT1=
EXTT2=
EXTT3=
PLAYORDER=
